<svg width="40" height="41" viewBox="0 0 40 41" fill="none" xmlns="http://www.w3.org/2000/svg">
<circle cx="20" cy="20.0459" r="20" fill="url(#paint0_linear_38_560)"/>
<path d="M14.75 7.5459H25.25C29.25 7.5459 32.5 10.7959 32.5 14.7959V25.2959C32.5 27.2187 31.7362 29.0628 30.3765 30.4224C29.0169 31.7821 27.1728 32.5459 25.25 32.5459H14.75C10.75 32.5459 7.5 29.2959 7.5 25.2959V14.7959C7.5 12.8731 8.26384 11.029 9.62348 9.66937C10.9831 8.30974 12.8272 7.5459 14.75 7.5459ZM14.5 10.0459C13.3065 10.0459 12.1619 10.52 11.318 11.3639C10.4741 12.2078 10 13.3524 10 14.5459V25.5459C10 28.0334 12.0125 30.0459 14.5 30.0459H25.5C26.6935 30.0459 27.8381 29.5718 28.682 28.7279C29.5259 27.884 30 26.7394 30 25.5459V14.5459C30 12.0584 27.9875 10.0459 25.5 10.0459H14.5ZM26.5625 11.9209C26.9769 11.9209 27.3743 12.0855 27.6674 12.3785C27.9604 12.6716 28.125 13.069 28.125 13.4834C28.125 13.8978 27.9604 14.2952 27.6674 14.5883C27.3743 14.8813 26.9769 15.0459 26.5625 15.0459C26.1481 15.0459 25.7507 14.8813 25.4576 14.5883C25.1646 14.2952 25 13.8978 25 13.4834C25 13.069 25.1646 12.6716 25.4576 12.3785C25.7507 12.0855 26.1481 11.9209 26.5625 11.9209ZM20 13.7959C21.6576 13.7959 23.2473 14.4544 24.4194 15.6265C25.5915 16.7986 26.25 18.3883 26.25 20.0459C26.25 21.7035 25.5915 23.2932 24.4194 24.4653C23.2473 25.6374 21.6576 26.2959 20 26.2959C18.3424 26.2959 16.7527 25.6374 15.5806 24.4653C14.4085 23.2932 13.75 21.7035 13.75 20.0459C13.75 18.3883 14.4085 16.7986 15.5806 15.6265C16.7527 14.4544 18.3424 13.7959 20 13.7959ZM20 16.2959C19.0054 16.2959 18.0516 16.691 17.3483 17.3942C16.6451 18.0975 16.25 19.0513 16.25 20.0459C16.25 21.0405 16.6451 21.9943 17.3483 22.6975C18.0516 23.4008 19.0054 23.7959 20 23.7959C20.9946 23.7959 21.9484 23.4008 22.6517 22.6975C23.3549 21.9943 23.75 21.0405 23.75 20.0459C23.75 19.0513 23.3549 18.0975 22.6517 17.3942C21.9484 16.691 20.9946 16.2959 20 16.2959Z" fill="white"/>
<defs>
<linearGradient id="paint0_linear_38_560" x1="20" y1="0.0458984" x2="20" y2="40.0459" gradientUnits="userSpaceOnUse">
<stop offset="0.0590348" stop-color="#6824AF"/>
<stop offset="0.487804" stop-color="#C42C66"/>
<stop offset="1" stop-color="#DD933F"/>
</linearGradient>
</defs>
</svg>
