<svg width="40" height="41" viewBox="0 0 40 41" fill="none" xmlns="http://www.w3.org/2000/svg">
<circle cx="20" cy="20.0459" r="20" fill="#1DA1F2"/>
<path d="M32.5 13.9626C31.5604 14.3702 30.5668 14.6397 29.55 14.7626C30.6227 14.1218 31.4266 13.1136 31.8125 11.9251C30.8044 12.5252 29.701 12.948 28.55 13.1751C27.7807 12.3408 26.7562 11.7855 25.6373 11.5962C24.5183 11.4069 23.3682 11.5943 22.3672 12.1291C21.3663 12.6639 20.5712 13.5158 20.1066 14.5511C19.6419 15.5865 19.5341 16.7468 19.8 17.8501C17.7618 17.747 15.7681 17.2163 13.9483 16.2924C12.1286 15.3686 10.5236 14.0722 9.2375 12.4876C8.78642 13.2753 8.5494 14.1674 8.55 15.0751C8.5484 15.9181 8.75527 16.7484 9.15219 17.4921C9.54912 18.2357 10.1238 18.8697 10.825 19.3376C10.01 19.3154 9.21236 19.0967 8.5 18.7001V18.7626C8.50611 19.9437 8.91999 21.0865 9.67164 21.9976C10.4233 22.9087 11.4666 23.5322 12.625 23.7626C12.1791 23.8983 11.7161 23.9699 11.25 23.9751C10.9274 23.9713 10.6055 23.9421 10.2875 23.8876C10.6174 24.9036 11.2558 25.7915 12.1138 26.4278C12.9719 27.0641 14.007 27.417 15.075 27.4376C13.2715 28.8567 11.0449 29.6312 8.75 29.6376C8.33217 29.639 7.91467 29.6139 7.5 29.5626C9.84304 31.0754 12.5735 31.8785 15.3625 31.8751C17.2871 31.8951 19.1964 31.5314 20.9789 30.8052C22.7614 30.079 24.3813 29.005 25.744 27.6457C27.1067 26.2865 28.185 24.6693 28.9157 22.8887C29.6464 21.1081 30.015 19.1998 30 17.2751V16.6126C30.9809 15.8811 31.8268 14.9844 32.5 13.9626Z" fill="white"/>
</svg>
