<svg width="80" height="80" viewBox="0 0 80 80" fill="none" xmlns="http://www.w3.org/2000/svg">
<circle cx="40" cy="40" r="39" fill="url(#paint0_linear_41_302)" stroke="url(#paint1_linear_41_302)" stroke-width="2"/>
<path d="M25.1667 29.7499L36.1102 38.0131L36.1137 38.0167C37.3285 38.9071 37.9359 39.3533 38.6024 39.5253C39.1911 39.6776 39.8089 39.6776 40.3976 39.5253C41.0641 39.3533 41.6733 38.9071 42.8916 38.0131C42.8916 38.0131 49.9096 32.6273 53.8333 29.7499M23.375 47.3083V33.6916C23.375 31.6849 23.375 30.6816 23.7656 29.9148C24.1096 29.2393 24.656 28.6928 25.3315 28.3488C26.0983 27.9583 27.1017 27.9583 29.1083 27.9583H49.8917C51.8983 27.9583 52.9017 27.9583 53.6667 28.3488C54.3422 28.6928 54.8904 29.2393 55.2344 29.9148C55.625 30.6798 55.625 31.6831 55.625 33.6862V47.3154C55.625 49.3185 55.625 50.3183 55.2344 51.0851C54.8902 51.7594 54.3414 52.3076 53.6667 52.651C52.9017 53.0416 51.9001 53.0416 49.897 53.0416H29.103C27.0999 53.0416 26.0965 53.0416 25.3315 52.651C24.6573 52.3075 24.1091 51.7593 23.7656 51.0851C23.375 50.3183 23.375 49.3149 23.375 47.3083Z" stroke="white" stroke-width="2" stroke-linecap="round" stroke-linejoin="round"/>
<defs>
<linearGradient id="paint0_linear_41_302" x1="-10.0001" y1="3.79567e-06" x2="96.9306" y2="8.42185" gradientUnits="userSpaceOnUse">
<stop stop-color="#FF6600"/>
<stop offset="1" stop-color="#D88046" stop-opacity="0.6"/>
</linearGradient>
<linearGradient id="paint1_linear_41_302" x1="-10.0001" y1="3.79567e-06" x2="96.9306" y2="8.42185" gradientUnits="userSpaceOnUse">
<stop stop-color="#FF6600"/>
<stop offset="1" stop-color="#D88046" stop-opacity="0.6"/>
</linearGradient>
</defs>
</svg>
