<svg width="40" height="41" viewBox="0 0 40 41" fill="none" xmlns="http://www.w3.org/2000/svg">
<circle cx="20" cy="20.0459" r="20" fill="#0077B7"/>
<path fill-rule="evenodd" clip-rule="evenodd" d="M16.7862 16.2571H21.4287V18.5696C22.0975 17.2396 23.8125 16.0446 26.3888 16.0446C31.3275 16.0446 32.5 18.6921 32.5 23.5496V32.5459H27.5V24.6559C27.5 21.8896 26.8313 20.3296 25.1288 20.3296C22.7675 20.3296 21.7862 22.0109 21.7862 24.6546V32.5459H16.7862V16.2571ZM8.2125 32.3334H13.2125V16.0446H8.2125V32.3334ZM13.9288 10.7334C13.9289 11.1525 13.8458 11.5674 13.6842 11.9541C13.5226 12.3408 13.2858 12.6915 12.9875 12.9859C12.383 13.5867 11.5648 13.923 10.7125 13.9209C9.86174 13.9203 9.04539 13.5849 8.44 12.9871C8.14276 12.6918 7.90673 12.3407 7.74543 11.9539C7.58413 11.5672 7.50072 11.1524 7.5 10.7334C7.5 9.88715 7.8375 9.07715 8.44125 8.47965C9.04611 7.8811 9.8628 7.54552 10.7138 7.5459C11.5663 7.5459 12.3837 7.88215 12.9875 8.47965C13.59 9.07715 13.9288 9.88715 13.9288 10.7334Z" fill="white"/>
</svg>
