<svg width="20" height="20" viewBox="0 0 20 20" fill="none" xmlns="http://www.w3.org/2000/svg">
<path d="M9.10313 3.48329C9.46997 2.74012 10.5297 2.74012 10.8965 3.48329L12.3424 6.41241C12.4879 6.70726 12.7691 6.91172 13.0945 6.95928L16.3294 7.43211C17.1493 7.55195 17.4761 8.55979 16.8825 9.13795L14.5433 11.4163C14.3074 11.6461 14.1998 11.9772 14.2554 12.3017L14.8073 15.5193C14.9474 16.3362 14.0898 16.9592 13.3562 16.5734L10.4653 15.0531C10.1739 14.8999 9.82577 14.8999 9.53439 15.0531L6.64347 16.5734C5.90984 16.9592 5.05229 16.3362 5.19241 15.5193L5.74426 12.3017C5.79992 11.9772 5.69226 11.6461 5.45638 11.4163L3.11718 9.13795C2.52359 8.55979 2.85037 7.55195 3.67029 7.43211L6.9052 6.95928C7.23056 6.91172 7.51174 6.70726 7.65728 6.41241L9.10313 3.48329Z" stroke="#FFB800" stroke-linecap="round" stroke-linejoin="round"/>
</svg>
