<svg width="81" height="80" viewBox="0 0 81 80" fill="none" xmlns="http://www.w3.org/2000/svg">
<circle cx="40.5" cy="40" r="39" fill="url(#paint0_linear_41_296)" stroke="url(#paint1_linear_41_296)" stroke-width="2"/>
<path d="M33.5224 23.4418C34.4632 23.1582 35.4727 23.2053 36.383 23.5754C37.2933 23.9454 38.0494 24.6161 38.5254 25.4757L38.6845 25.7961L40.1078 28.9587C40.5398 29.9187 40.68 30.9844 40.511 32.0234C40.3421 33.0624 39.8714 34.0288 39.1575 34.8024L38.8716 35.0862L36.6291 37.1782C36.2249 37.5609 36.5281 39.0422 37.9901 41.5749C39.3059 43.8539 40.3766 44.9182 40.9033 44.9762H40.9958L41.1097 44.9547L45.5172 43.6067C46.1096 43.425 46.7417 43.4178 47.338 43.586C47.9344 43.7541 48.4696 44.0905 48.8798 44.5548L49.0755 44.8021L51.993 48.8441C52.5648 49.6364 52.8497 50.5997 52.8009 51.5755C52.752 52.5514 52.3723 53.4815 51.7243 54.2126L51.462 54.4835L50.2967 55.5886C49.2502 56.5796 47.9413 57.2493 46.5253 57.518C45.1094 57.7867 43.6461 57.6431 42.3094 57.1044C38.1492 55.4274 34.3695 51.5961 30.9359 45.6492C27.4959 39.6872 26.0662 34.4907 26.7047 30.0402C26.8979 28.6949 27.4519 27.427 28.3078 26.3712C29.1637 25.3154 30.2896 24.5112 31.5659 24.0438L31.9808 23.9062L33.5224 23.4418Z" fill="white"/>
<defs>
<linearGradient id="paint0_linear_41_296" x1="-9.50008" y1="3.79567e-06" x2="97.4306" y2="8.42185" gradientUnits="userSpaceOnUse">
<stop stop-color="#FF6600"/>
<stop offset="1" stop-color="#D88046" stop-opacity="0.6"/>
</linearGradient>
<linearGradient id="paint1_linear_41_296" x1="-9.50008" y1="3.79567e-06" x2="97.4306" y2="8.42185" gradientUnits="userSpaceOnUse">
<stop stop-color="#FF6600"/>
<stop offset="1" stop-color="#D88046" stop-opacity="0.6"/>
</linearGradient>
</defs>
</svg>
